<svg id="logo" width="104" height="104" viewBox="0 0 104 104" fill="none" xmlns="http://www.w3.org/2000/svg">
  <g filter="url(#filter0_dd_2_1775)">
    <path d="M20 16C20 7.16344 27.1634 0 36 0H68C76.8366 0 84 7.16344 84 16V48C84 56.8366 76.8366 64 68 64H36C27.1634 64 20 56.8366 20 48V16Z" fill="url(#paint0_linear_2_1775)" shape-rendering="crispEdges"/>
    <path d="M62.6666 33.3333C62.6666 39.9999 58 43.3333 52.4533 45.2666C52.1629 45.365 51.8474 45.3603 51.56 45.2533C46 43.3333 41.3333 39.9999 41.3333 33.3333V23.9999C41.3333 23.6463 41.4738 23.3072 41.7238 23.0571C41.9739 22.8071 42.313 22.6666 42.6666 22.6666C45.3333 22.6666 48.6666 21.0666 50.9866 19.0399C51.2691 18.7986 51.6285 18.666 52 18.666C52.3715 18.666 52.7308 18.7986 53.0133 19.0399C55.3466 21.0799 58.6666 22.6666 61.3333 22.6666C61.6869 22.6666 62.0261 22.8071 62.2761 23.0571C62.5262 23.3072 62.6666 23.6463 62.6666 23.9999V33.3333Z" stroke="white" stroke-width="2.66667" stroke-linecap="round" stroke-linejoin="round"/>
  </g>
  <defs>
    <filter id="filter0_dd_2_1775" x="0" y="0" width="104" height="104" filterUnits="userSpaceOnUse" color-interpolation-filters="sRGB">
      <feFlood flood-opacity="0" result="BackgroundImageFix"/>
      <feColorMatrix in="SourceAlpha" type="matrix" values="0 0 0 0 0 0 0 0 0 0 0 0 0 0 0 0 0 0 127 0" result="hardAlpha"/>
      <feMorphology radius="6" operator="erode" in="SourceAlpha" result="effect1_dropShadow_2_1775"/>
      <feOffset dy="8"/>
      <feGaussianBlur stdDeviation="5"/>
      <feComposite in2="hardAlpha" operator="out"/>
      <feColorMatrix type="matrix" values="0 0 0 0 0 0 0 0 0 0.733333 0 0 0 0 0.654902 0 0 0 0.2 0"/>
      <feBlend mode="normal" in2="BackgroundImageFix" result="effect1_dropShadow_2_1775"/>
      <feColorMatrix in="SourceAlpha" type="matrix" values="0 0 0 0 0 0 0 0 0 0 0 0 0 0 0 0 0 0 127 0" result="hardAlpha"/>
      <feMorphology radius="5" operator="erode" in="SourceAlpha" result="effect2_dropShadow_2_1775"/>
      <feOffset dy="20"/>
      <feGaussianBlur stdDeviation="12.5"/>
      <feComposite in2="hardAlpha" operator="out"/>
      <feColorMatrix type="matrix" values="0 0 0 0 0 0 0 0 0 0.733333 0 0 0 0 0.654902 0 0 0 0.2 0"/>
      <feBlend mode="normal" in2="effect1_dropShadow_2_1775" result="effect2_dropShadow_2_1775"/>
      <feBlend mode="normal" in="SourceGraphic" in2="effect2_dropShadow_2_1775" result="shape"/>
    </filter>
    <linearGradient id="paint0_linear_2_1775" x1="20" y1="0" x2="84" y2="64" gradientUnits="userSpaceOnUse">
      <stop stop-color="#00BBA7"/>
      <stop offset="1" stop-color="#009966"/>
    </linearGradient>
  </defs>
</svg>
